<svg width="124" height="124" viewBox="0 0 124 124" fill="none" xmlns="http://www.w3.org/2000/svg">
<g clip-path="url(#clip0_8_69)">
<path d="M62 123.262C95.834 123.262 123.262 95.834 123.262 62C123.262 28.166 95.834 0.738098 62 0.738098C28.166 0.738098 0.738098 28.166 0.738098 62C0.738098 95.834 28.166 123.262 62 123.262Z" fill="url(#paint0_linear_8_69)" stroke="white"/>
<path d="M73.2996 64.6245V76.3482C73.2996 86.1394 69.3917 90.0472 59.6006 90.0472H47.9199C38.1716 90.0472 34.2208 86.1394 34.2208 76.3482V64.6245C34.2208 54.8763 38.1287 50.9684 47.9199 50.9684H59.6435C69.3917 50.9684 73.2996 54.8763 73.2996 64.6245Z" stroke="white" stroke-width="4.36364" stroke-linecap="round" stroke-linejoin="round"/>
<path d="M90.0494 47.8769V59.6006C90.0494 69.3917 86.1415 73.2996 76.3503 73.2996H73.3013V64.625C73.3013 54.8768 69.3934 50.9689 59.6023 50.9689H50.9705V47.8769C50.9705 38.0858 54.8784 34.2208 64.6696 34.2208H76.3932C86.1415 34.2208 90.0494 38.1287 90.0494 47.8769Z" stroke="white" stroke-width="4.36364" stroke-linecap="round" stroke-linejoin="round"/>
<path d="M105.078 75.0173C105.078 91.6366 91.6366 105.078 75.0173 105.078L79.5264 97.5628" stroke="black" stroke-width="4.36364" stroke-linecap="round" stroke-linejoin="round"/>
<path d="M19.1905 49.2511C19.1905 32.6319 32.6319 19.1905 49.2511 19.1905L44.742 26.7056" stroke="black" stroke-width="4.36364" stroke-linecap="round" stroke-linejoin="round"/>
<rect x="55" y="74" width="20" height="9" rx="3" fill="white"/>
<path d="M57.3005 81.07C57.0858 81.07 56.9131 81.007 56.7825 80.881C56.6565 80.7503 56.5935 80.5777 56.5935 80.363C56.5935 80.1437 56.6565 79.971 56.7825 79.845C56.9131 79.719 57.0858 79.656 57.3005 79.656C57.5198 79.656 57.6925 79.719 57.8185 79.845C57.9445 79.971 58.0075 80.1437 58.0075 80.363C58.0075 80.5777 57.9445 80.7503 57.8185 80.881C57.6925 81.007 57.5198 81.07 57.3005 81.07ZM58.7677 81V80.09H59.7827V76.8H58.7677V75.89H61.8477V76.8H60.8327V80.09H61.8477V81H58.7677ZM64.533 81.07C64.1923 81.07 63.8937 81.007 63.637 80.881C63.3803 80.7503 63.1797 80.5707 63.035 80.342C62.895 80.1087 62.825 79.838 62.825 79.53V77.36C62.825 77.0473 62.895 76.7767 63.035 76.548C63.1797 76.3193 63.3803 76.142 63.637 76.016C63.8937 75.8853 64.1923 75.82 64.533 75.82C64.8783 75.82 65.177 75.8853 65.429 76.016C65.6857 76.142 65.884 76.3193 66.024 76.548C66.1687 76.7767 66.241 77.0473 66.241 77.36H65.191C65.191 77.1547 65.1327 76.9983 65.016 76.891C64.904 76.7837 64.743 76.73 64.533 76.73C64.323 76.73 64.1597 76.7837 64.043 76.891C63.931 76.9983 63.875 77.1547 63.875 77.36V79.53C63.875 79.7307 63.931 79.887 64.043 79.999C64.1597 80.1063 64.323 80.16 64.533 80.16C64.743 80.16 64.904 80.1063 65.016 79.999C65.1327 79.887 65.191 79.7307 65.191 79.53H66.241C66.241 79.838 66.1687 80.1087 66.024 80.342C65.884 80.5707 65.6857 80.7503 65.429 80.881C65.177 81.007 64.8783 81.07 64.533 81.07ZM68.7023 81.07C68.3616 81.07 68.0653 81.007 67.8133 80.881C67.5613 80.7503 67.3653 80.5707 67.2253 80.342C67.0899 80.1087 67.0223 79.838 67.0223 79.53V77.36C67.0223 77.052 67.0899 76.7837 67.2253 76.555C67.3653 76.3217 67.5613 76.142 67.8133 76.016C68.0653 75.8853 68.3616 75.82 68.7023 75.82C69.0476 75.82 69.3439 75.8853 69.5913 76.016C69.8433 76.142 70.0369 76.3217 70.1723 76.555C70.3123 76.7837 70.3823 77.052 70.3823 77.36V79.53C70.3823 79.838 70.3123 80.1087 70.1723 80.342C70.0369 80.5707 69.8433 80.7503 69.5913 80.881C69.3439 81.007 69.0476 81.07 68.7023 81.07ZM68.7023 80.16C68.9123 80.16 69.0686 80.1063 69.1713 79.999C69.2786 79.887 69.3323 79.7307 69.3323 79.53V77.36C69.3323 77.1547 69.2809 76.9983 69.1783 76.891C69.0756 76.7837 68.9169 76.73 68.7023 76.73C68.4876 76.73 68.3289 76.7837 68.2263 76.891C68.1236 76.9983 68.0723 77.1547 68.0723 77.36V79.53C68.0723 79.7307 68.1236 79.887 68.2263 79.999C68.3336 80.1063 68.4923 80.16 68.7023 80.16Z" fill="black"/>
</g>
<defs>
<linearGradient id="paint0_linear_8_69" x1="102.595" y1="109.976" x2="13.4538" y2="22.1364" gradientUnits="userSpaceOnUse">
<stop stop-color="#5A81FF"/>
<stop offset="0.524" stop-color="#E40C5B"/>
<stop offset="1" stop-color="#FF4C3B"/>
</linearGradient>
<clipPath id="clip0_8_69">
<rect width="124" height="124" fill="white"/>
</clipPath>
</defs>
</svg>
